<?xml version="1.0" encoding="utf-8"?>
<!-- Generator: Adobe Illustrator 16.0.0, SVG Export Plug-In . SVG Version: 6.00 Build 0)  -->
<!DOCTYPE svg PUBLIC "-//W3C//DTD SVG 1.1//EN" "http://www.w3.org/Graphics/SVG/1.1/DTD/svg11.dtd">
<svg version="1.1" xmlns="http://www.w3.org/2000/svg" xmlns:xlink="http://www.w3.org/1999/xlink" x="0px" y="0px" width="155.5px"
	 height="152.333px" viewBox="0 0 155.5 152.333" enable-background="new 0 0 155.5 152.333" xml:space="preserve">
<g id="圖層_1">
	<g>
		<g>
			<rect x="22.5" y="3" fill="none" stroke="#383A42" stroke-width="4" stroke-miterlimit="10" width="111" height="147"/>
			<g>
				<g>
					<rect x="39" y="32.5" fill="none" stroke="#383A42" stroke-width="3" stroke-miterlimit="10" width="25" height="24"/>
					<g>
						<polygon fill="#383A42" points="44.357,30.412 54.34,42.896 50.155,42.826 69.645,18.297 71.855,19.92 54.29,45.861 
							52.057,49.16 50.105,45.791 42.094,31.959 						"/>
					</g>
				</g>
				<g>
					<rect x="39" y="71.5" fill="none" stroke="#383A42" stroke-width="3" stroke-miterlimit="10" width="25" height="25"/>
					<g>
						<polygon fill="#383A42" points="44.357,69.461 54.34,81.946 50.155,81.876 69.645,57.347 71.855,58.97 54.29,84.911 
							52.057,88.209 50.105,84.841 42.094,71.009 						"/>
					</g>
				</g>
				<g>
					<rect x="39" y="110.5" fill="none" stroke="#383A42" stroke-width="3" stroke-miterlimit="10" width="25" height="24"/>
					<g>
						<polygon fill="#383A42" points="44.357,108.511 54.34,120.996 50.155,120.926 69.645,96.396 71.855,98.02 54.29,123.961 
							52.057,127.259 50.105,123.891 42.094,110.059 						"/>
					</g>
				</g>
				<g>
					<line fill="none" stroke="#383A42" stroke-width="5" stroke-miterlimit="10" x1="75.5" y1="38.5" x2="118.5" y2="38.5"/>
					<line fill="none" stroke="#383A42" stroke-width="5" stroke-miterlimit="10" x1="75.5" y1="50.5" x2="112.5" y2="50.5"/>
				</g>
				<g>
					<line fill="none" stroke="#383A42" stroke-width="5" stroke-miterlimit="10" x1="75.5" y1="77.5" x2="118.5" y2="77.5"/>
					<line fill="none" stroke="#383A42" stroke-width="5" stroke-miterlimit="10" x1="75.5" y1="90.5" x2="112.5" y2="90.5"/>
				</g>
				<g>
					<line fill="none" stroke="#383A42" stroke-width="5" stroke-miterlimit="10" x1="75.5" y1="116.5" x2="118.5" y2="116.5"/>
					<line fill="none" stroke="#383A42" stroke-width="5" stroke-miterlimit="10" x1="75.5" y1="128.5" x2="112.5" y2="128.5"/>
				</g>
			</g>
		</g>
		<rect x="41" y="0.5" fill="#383A42" stroke="#383A42" stroke-miterlimit="10" width="74" height="13"/>
	</g>
</g>
<g id="圖層_2">
</g>
</svg>
