<?xml version="1.0" encoding="utf-8"?>
<!-- Generator: Adobe Illustrator 16.0.0, SVG Export Plug-In . SVG Version: 6.00 Build 0)  -->
<!DOCTYPE svg PUBLIC "-//W3C//DTD SVG 1.1//EN" "http://www.w3.org/Graphics/SVG/1.1/DTD/svg11.dtd">
<svg version="1.1" xmlns="http://www.w3.org/2000/svg" xmlns:xlink="http://www.w3.org/1999/xlink" x="0px" y="0px" width="155.5px"
	 height="152.333px" viewBox="0 0 155.5 152.333" enable-background="new 0 0 155.5 152.333" xml:space="preserve">
<g id="圖層_1">
	<g>
		<g>
			<rect x="16" y="17" fill="none" stroke="#383A42" stroke-width="4" stroke-miterlimit="10" width="124" height="84"/>
			
				<ellipse fill="none" stroke="#D4145A" stroke-width="3.9629" stroke-miterlimit="10" cx="85.58" cy="81.433" rx="4.248" ry="3.903"/>
			
				<ellipse fill="none" stroke="#8CC63F" stroke-width="3.9629" stroke-miterlimit="10" cx="123.636" cy="46.462" rx="4.248" ry="3.903"/>
			<polygon fill="none" stroke="#383A42" stroke-width="4" stroke-miterlimit="10" points="16,64.885 25.791,54.914 32.887,59.899 
				47.785,46.668 58.287,64.885 64.045,58.326 74.55,81.712 79.631,73.002 85.73,82.682 101.998,64.885 107.08,73.626 
				123.346,46.668 128.043,58.326 133.029,54.914 140,64.885 140,101 16,101 			"/>
		</g>
		<rect x="4" y="5" fill="none" stroke="#383A42" stroke-width="4" stroke-miterlimit="10" width="148" height="108"/>
		<rect x="70.5" y="113.5" fill="none" stroke="#383A42" stroke-width="3" stroke-miterlimit="10" width="14" height="20"/>
		<rect x="35.5" y="134.5" fill="none" stroke="#383A42" stroke-width="3" stroke-miterlimit="10" width="85" height="14"/>
	</g>
</g>
<g id="圖層_2">
</g>
</svg>
