<?xml version="1.0" encoding="utf-8"?>
<!-- Generator: Adobe Illustrator 16.0.0, SVG Export Plug-In . SVG Version: 6.00 Build 0)  -->
<!DOCTYPE svg PUBLIC "-//W3C//DTD SVG 1.1//EN" "http://www.w3.org/Graphics/SVG/1.1/DTD/svg11.dtd">
<svg version="1.1" xmlns="http://www.w3.org/2000/svg" xmlns:xlink="http://www.w3.org/1999/xlink" x="0px" y="0px" width="155.5px"
	 height="152.333px" viewBox="0 0 155.5 152.333" enable-background="new 0 0 155.5 152.333" xml:space="preserve">
<g id="圖層_1">
	<g>
		<g>
			<path fill="none" stroke="#282F44" stroke-width="2.3913" stroke-miterlimit="10" d="M26.569,30.066
				c-2.377,0-4.529-0.964-6.088-2.521"/>
			<path fill="none" stroke="#282F44" stroke-width="2.3913" stroke-miterlimit="10" d="M26.569,12.847
				c4.756,0,8.61,3.854,8.61,8.61c0,4.755-3.854,8.609-8.61,8.609"/>
			<path fill="none" stroke="#282F44" stroke-width="2.3913" stroke-miterlimit="10" d="M17.96,21.457
				c0-4.756,3.855-8.61,8.609-8.61"/>
			<g>
				<path fill="#282F44" d="M27,23.263C27,23.474,26.583,24,26.239,24h-0.083C25.813,24,25,23.474,25,23.263V16.91
					C25,16.7,25.813,17,26.156,17h0.083C26.583,17,27,16.7,27,16.91V23.263z"/>
				<path fill="#282F44" d="M26.028,24C25.891,24,25,23.409,25,23.047V22.96c0-0.363,0.892-0.96,1.028-0.96h4.148
					C30.314,22,30,22.597,30,22.96v0.087C30,23.409,30.314,24,30.177,24H26.028z"/>
			</g>
			<polyline fill="#282F44" points="15.269,20.19 18.063,24.299 20.86,20.19 			"/>
		</g>
		
			<ellipse fill="none" stroke="#D4145A" stroke-width="3.8362" stroke-miterlimit="10" cx="76.606" cy="68.07" rx="4.112" ry="3.778"/>
		
			<ellipse fill="none" stroke="#8CC63F" stroke-width="3.8362" stroke-miterlimit="10" cx="113.446" cy="34.218" rx="4.112" ry="3.778"/>
		<polyline fill="none" stroke="#383A42" stroke-width="4" stroke-miterlimit="10" points="60,88 9,88 9,6 130,6 130,64 		"/>
		<path fill="none" stroke="#383A42" stroke-width="4" stroke-miterlimit="10" d="M124,72h-11.621c0,0-1.27,34.142,17.479,34.142"/>
		<path fill="none" stroke="#383A42" stroke-width="4" stroke-miterlimit="10" d="M136,72h10.43c0,0,1.865,34.142-16.883,34.142"/>
		<line fill="none" stroke="#383A42" stroke-width="4" stroke-miterlimit="10" x1="123" y1="68" x2="123" y2="75"/>
		<line fill="none" stroke="#383A42" stroke-width="4" stroke-miterlimit="10" x1="136" y1="68" x2="136" y2="75"/>
		<path fill="none" stroke="#383A42" stroke-width="4" stroke-miterlimit="10" d="M129,106v26.788
			c0,7.302-4.021,13.221-9.389,13.221s-9.437-5.921-9.437-13.221c0,0-1.914-42.425-23.791-38.798"/>
		<circle fill="none" stroke="#383A42" stroke-width="3.2015" stroke-miterlimit="10" cx="79.188" cy="93.466" r="8.103"/>
		<circle fill="none" stroke="#383A42" stroke-width="1.6008" stroke-miterlimit="10" cx="79.164" cy="93.443" r="5.297"/>
		<polyline fill="none" stroke="#383A42" stroke-width="4" stroke-miterlimit="10" points="60,88 9,88 9,52.051 18.604,42.399 
			25.534,47.226 39.99,34.417 50.17,52.051 55.752,45.702 65.925,68.341 70.847,59.909 76.751,69.279 92.499,52.051 97.419,60.514 
			113.165,34.417 117.712,45.702 122.895,42.399 130,52.051 130,64 		"/>
	</g>
</g>
<g id="圖層_2">
</g>
</svg>
