<?xml version="1.0" encoding="utf-8"?>
<!-- Generator: Adobe Illustrator 16.0.0, SVG Export Plug-In . SVG Version: 6.00 Build 0)  -->
<!DOCTYPE svg PUBLIC "-//W3C//DTD SVG 1.1//EN" "http://www.w3.org/Graphics/SVG/1.1/DTD/svg11.dtd">
<svg version="1.1" xmlns="http://www.w3.org/2000/svg" xmlns:xlink="http://www.w3.org/1999/xlink" x="0px" y="0px" width="155.5px"
	 height="152.333px" viewBox="0 0 155.5 152.333" enable-background="new 0 0 155.5 152.333" xml:space="preserve">
<g id="圖層_1">
	<g>
		<polyline fill="none" stroke="#383A42" stroke-width="4.0289" stroke-miterlimit="10" points="6.343,91.167 14.767,85.095 
			21.652,99.225 29.27,92.16 34.104,99.225 43.796,85.095 51.869,92.16 57,90.485 60.399,92.16 77.654,71.032 82.408,79.08 
			87.283,77.06 92.158,85.129 109.886,58.13 116.332,65.757 133.254,37.19 		"/>
		<polyline fill="none" stroke="#383A42" stroke-width="4" stroke-miterlimit="10" points="95.5,111 4.5,111 4.5,5 132.5,5 
			132.5,80 		"/>
		<g>
			<path fill="none" stroke="#383A42" stroke-width="4.0289" stroke-miterlimit="10" d="M150.178,141.549
				c0.001,0.914-0.704,1.655-1.576,1.659l-6.32,0.029c-0.874,0.002-1.583-0.735-1.583-1.646l-0.057-25.19
				c0-0.914,0.704-1.656,1.578-1.66l6.32-0.026c0.872-0.005,1.582,0.733,1.584,1.645L150.178,141.549z"/>
			<path fill="none" stroke="#383A42" stroke-width="4.0289" stroke-miterlimit="10" d="M140.447,118.826
				c-2.83-1.854-6.441-5.363-7.095-15.898c1.505-18.153-7.46-7.711-8.083-4.482l-0.405,15.022l-12.342-0.333
				c0,0-8.343-0.621-7.737,3.98c0.605,4.604,2.561,28.935,5.187,29.062c3.407,3.564,23.438-6.447,23.438-6.447
				s4.599-0.797,6.698-0.466"/>
		</g>
	</g>
</g>
<g id="圖層_2">
</g>
</svg>
