<?xml version="1.0" encoding="utf-8"?>
<!-- Generator: Adobe Illustrator 16.0.0, SVG Export Plug-In . SVG Version: 6.00 Build 0)  -->
<!DOCTYPE svg PUBLIC "-//W3C//DTD SVG 1.1//EN" "http://www.w3.org/Graphics/SVG/1.1/DTD/svg11.dtd">
<svg version="1.1" xmlns="http://www.w3.org/2000/svg" xmlns:xlink="http://www.w3.org/1999/xlink" x="0px" y="0px" width="155.5px"
	 height="152.333px" viewBox="0 0 155.5 152.333" enable-background="new 0 0 155.5 152.333" xml:space="preserve">
<g id="圖層_1">
	<g>
		<path fill="none" stroke="#383A42" stroke-width="4" stroke-miterlimit="10" d="M58.444,92h10.709c1.88,0,3.347-1.2,3.347-2.908
			V44.257c0-1.709-1.467-2.257-3.347-2.257H7.063C5.185,42,2.5,42.548,2.5,44.257v44.835C2.5,90.8,5.185,92,7.063,92H43.75
			l14.953,13.579L58.444,92z"/>
		<path fill="none" stroke="#383A42" stroke-width="4" stroke-miterlimit="10" d="M73.5,73h44v20.942L136.973,73h13.119
			c1.871,0,3.408-1.312,3.408-3.181V5.487c0-1.871-1.537-3.487-3.408-3.487H60.367C58.498,2,57.5,3.616,57.5,5.487V41"/>
		<path fill="none" stroke="#383A42" stroke-width="4" stroke-miterlimit="10" d="M86.307,138h-6.928
			c-1.215,0-1.879-0.781-1.879-1.946v-30.618c0-1.166,0.664-1.436,1.879-1.436h40.159c1.214,0,2.962,0.27,2.962,1.436v30.618
			c0,1.165-1.748,1.946-2.962,1.946H95.81l-9.672,9.273L86.307,138z"/>
	</g>
</g>
<g id="圖層_2">
</g>
</svg>
